<svg xmlns="http://www.w3.org/2000/svg" viewBox="0 0 1662.57 530.82"><defs><style>.cls-1,.cls-2,.cls-6{fill:none;}.cls-1,.cls-4,.cls-6{stroke:#2e186a;}.cls-1,.cls-2,.cls-4,.cls-6{stroke-linecap:round;stroke-linejoin:round;}.cls-1,.cls-2,.cls-4{stroke-width:6px;}.cls-2{stroke:#fe7624;}.cls-3{fill:#fe7624;}.cls-4{fill:#fff;}.cls-5{fill:#2e186a;}.cls-6{stroke-width:8px;}</style></defs><g id="Layer_2" data-name="Layer 2"><g id="outline_II" data-name="outline II"><g id="flower"><g id="leaves"><g id="leaf_IV" data-name="leaf IV"><path class="cls-1" d="M184,221.73C159,198.16,153.12,199,146.82,166c-7.92-41.41-50-58.14-71.14-34.12S80,201.92,88.15,212c6.31,7.75,2.92,44.68,13.52,81.54"/></g><g id="leaf_III" data-name="leaf III"><path class="cls-1" d="M308.66,195.24c-15.52-16.75-36.07-33.08-28.29-54.63,11.78-32.68,13.72-66.78-24.85-70.46C211,65.89,201.77,111,200.33,149.23s5.66,51.94-16.08,72.28,13.64,47.85,10.63,68c-2.35,15.72-15.59,52,17.23,124"/></g><g id="leaf_II" data-name="leaf II"><path class="cls-1" d="M190.48,334.76c-11.82-12.77-25.16-22.84-40.08-27.84-53.94-18.09-54.2-6.39-77.14-33.42s-60.33-22-65.69,4.21,32.19,49.41,42.3,53.4,30.45,52.19,67.59,72.51S173,384,187.09,411.87"/></g><g id="leaf"><path class="cls-1" d="M234.94,413.49c3.38-47.61,13.7-107.89,48.73-136.18A370.17,370.17,0,0,1,319.1,251.8"/></g></g><path id="pot" class="cls-1" d="M251.78,413.49H173.44a11.88,11.88,0,0,0-11.79,14.37l21.74,97.33"/></g><g id="whiteboard"><path id="shape" class="cls-2" d="M390.14,121.65V6.39A3.39,3.39,0,0,1,393.53,3h842.66a3.39,3.39,0,0,1,3.39,3.39V78.74"/><g id="layout_III" data-name="layout III"><polyline class="cls-2" points="930.28 373.04 823.42 373.04 823.42 78.74 1060.43 78.74 1060.43 340.53"/><rect class="cls-2" x="850.91" y="103.66" width="66.96" height="22.15"/><line class="cls-2" x1="852.04" y1="125.21" x2="917.87" y2="103.66"/><rect class="cls-2" x="850.91" y="215.69" width="49.26" height="49.26"/><line class="cls-2" x1="900.17" y1="215.69" x2="850.91" y2="264.95"/><polyline class="cls-2" points="918.16 262.92 918.16 215.69 967.42 215.69 967.42 264.94 957.42 264.94"/><line class="cls-2" x1="967.42" y1="215.69" x2="920.19" y2="262.92"/><rect class="cls-2" x="985.41" y="215.69" width="49.26" height="49.26"/><line class="cls-2" x1="1034.67" y1="215.69" x2="985.41" y2="264.95"/><rect class="cls-2" x="850.91" y="152.2" width="49.26" height="49.26"/><line class="cls-2" x1="900.17" y1="152.2" x2="850.91" y2="201.46"/><rect class="cls-2" x="918.16" y="152.2" width="49.26" height="49.26"/><line class="cls-2" x1="967.42" y1="152.2" x2="918.16" y2="201.46"/><rect class="cls-2" x="985.41" y="152.2" width="49.26" height="49.26"/><line class="cls-2" x1="1034.67" y1="152.2" x2="985.41" y2="201.46"/><polyline class="cls-2" points="917.87 310.6 917.87 345.82 867.02 345.82 867.02 302.98 907.68 302.98"/><polyline class="cls-2" points="955.33 345.82 850.91 345.82 850.91 290.02 937 290.02"/><polyline class="cls-2" points="1000.93 290.02 1035.89 290.02 1035.89 304.85"/><line class="cls-2" x1="936.03" y1="117.75" x2="967.19" y2="117.75"/><line class="cls-2" x1="977.2" y1="117.75" x2="1032.87" y2="117.75"/><line class="cls-2" x1="982.21" y1="61.87" x2="1037.88" y2="61.87"/><line class="cls-2" x1="710.12" y1="109.61" x2="765.8" y2="109.61"/></g><g id="layout_II" data-name="layout II"><polyline class="cls-2" points="823.42 527.82 823.42 402.75 936.86 402.75"/><rect class="cls-2" x="850.91" y="427.68" width="66.96" height="22.15"/><line class="cls-2" x1="852.04" y1="449.22" x2="917.87" y2="427.68"/><rect class="cls-2" x="850.91" y="476.21" width="49.26" height="49.26"/><line class="cls-2" x1="900.17" y1="476.21" x2="850.91" y2="525.47"/><polyline class="cls-2" points="918.16 525.47 918.16 476.21 952.93 476.21"/><line class="cls-2" x1="957.12" y1="488.51" x2="918.16" y2="525.47"/><line class="cls-2" x1="936.03" y1="441.77" x2="946.08" y2="441.77"/></g><g id="layout"><polyline class="cls-2" points="623.01 135 783.29 135 783.29 429.3 546.28 429.3 546.28 322.38"/><polyline class="cls-2" points="546.28 193.06 546.28 135 564.02 135"/><polyline class="cls-2" points="599.39 159.93 640.73 159.93 640.73 182.07 595.28 182.07"/><line class="cls-2" x1="596.45" y1="174.42" x2="640.73" y2="159.93"/><line class="cls-2" x1="591.66" y1="211.48" x2="640.73" y2="211.48"/><line class="cls-2" x1="589.81" y1="229.31" x2="630.95" y2="229.31"/><line class="cls-2" x1="589.81" y1="246.23" x2="610.21" y2="246.23"/><line class="cls-2" x1="586.86" y1="263.14" x2="601.71" y2="263.14"/><line class="cls-2" x1="586.86" y1="280.05" x2="623.61" y2="280.05"/><line class="cls-2" x1="573.77" y1="299.31" x2="640.73" y2="299.31"/><circle class="cls-2" cx="574.9" cy="317.15" r="3.28"/><circle class="cls-2" cx="574.9" cy="334.06" r="3.28"/><line class="cls-2" x1="586.86" y1="317.15" x2="630.95" y2="317.15"/><line class="cls-2" x1="586.86" y1="334.06" x2="610.21" y2="334.06"/><rect class="cls-2" x="658.89" y="204.28" width="98.64" height="79.06"/><line class="cls-2" x1="658.89" y1="283.34" x2="757.53" y2="204.28"/><rect class="cls-2" x="658.89" y="301.89" width="26.44" height="26.44"/><line class="cls-2" x1="685.33" y1="301.89" x2="658.89" y2="328.33"/><rect class="cls-2" x="694.99" y="301.89" width="26.44" height="26.44"/><line class="cls-2" x1="721.43" y1="301.89" x2="694.99" y2="328.33"/><rect class="cls-2" x="731.09" y="301.89" width="26.44" height="26.44"/><line class="cls-2" x1="757.53" y1="301.89" x2="731.09" y2="328.33"/><rect class="cls-2" x="676.15" y="359.24" width="39.49" height="34.48"/><line class="cls-2" x1="728.17" y1="360.87" x2="747.75" y2="360.87"/><line class="cls-2" x1="728.17" y1="371.6" x2="747.75" y2="371.6"/><line class="cls-2" x1="658.89" y1="174.02" x2="690.05" y2="174.02"/><line class="cls-2" x1="700.06" y1="174.02" x2="755.73" y2="174.02"/><rect class="cls-2" x="658.89" y="346.28" width="99.86" height="47.44"/></g><g id="post-it_s" data-name="post-it&apos;s"><rect class="cls-3" x="475.77" y="126.13" width="47.74" height="47.74"/><rect class="cls-3" x="415.72" y="90.57" width="47.74" height="47.74"/><rect class="cls-3" x="1081.02" y="66.3" width="47.74" height="47.74"/><rect class="cls-3" x="1096.62" y="122.18" width="47.74" height="47.74"/><rect class="cls-3" x="1110.71" y="173.75" width="47.74" height="47.74"/><rect class="cls-3" x="1074.77" y="226.58" width="47.74" height="47.74"/><rect class="cls-3" x="1050.9" y="174.38" width="47.74" height="47.74"/><rect class="cls-3" x="530.43" y="61.87" width="47.74" height="47.74"/><rect class="cls-3" x="607.08" y="59.23" width="47.74" height="47.74"/><rect class="cls-3" x="1041.02" y="117.58" width="47.74" height="47.74"/><rect class="cls-3" x="545" y="467.48" width="47.74" height="47.74"/><rect class="cls-3" x="460.25" y="35.36" width="47.74" height="47.74"/><rect class="cls-3" x="599.74" y="441.41" width="47.74" height="47.74"/><rect class="cls-3" x="661.46" y="451.07" width="47.74" height="47.74"/><rect class="cls-3" x="725.18" y="454.69" width="47.74" height="47.74"/></g></g><g id="developer"><path id="chair" class="cls-1" d="M1518.89,524.12V366.47a121.75,121.75,0,0,0-121.75-121.75h-45.68a123.3,123.3,0,0,0-17.08,1.19"/><g id="body"><path id="hoodie" class="cls-1" d="M1465.57,428.46a104.09,104.09,0,0,1,5.67,26.64"/><path class="cls-3" d="M1202.44,454.45v0l0,0Z"/><path class="cls-3" d="M1305.8,266l-2.3-.1,1,1.15s-34.74,21.47-68,59.32c0,0-20.3-19-29.06-53.17-8.21,11.15-16.66,47.14-4.94,81.26,6.94,20.2,4,64.15,0,100,9-7.14,34.09-3.09,34.09-3.09.92-5.76,2-12.08,3.22-19,19.27-108.54,78.5-153.59,78.5-153.59Z"/><path id="hoodie-2" data-name="hoodie" class="cls-1" d="M1291.11,231.84c61,10.83,66.06,37.82,53,63.76,18.53,9.29,48.74,28.26,78.78,63.59"/><path id="hoodie-3" data-name="hoodie" class="cls-1" d="M1084.24,367.84c17.65-28.32,42.4-57.57,77.06-84.91h0c-.09-15.52,3-35.43,24.24-47.15"/><path id="neck" class="cls-1" d="M1294.53,216.9l-.69,36.7L1304.5,267h0s-34.74,21.47-68,59.32c0,0-17.26-18.21-26.69-48.36"/><g id="hand"><path id="hand-2" data-name="hand" class="cls-1" d="M1232.92,448.24c-9.71,1.81-21.06,4-30.5,6.21"/><line id="hand-3" data-name="hand" class="cls-1" x1="1196.14" y1="496.47" x2="1231.1" y2="494.93"/><path id="hand-4" data-name="hand" class="cls-4" d="M1202.42,454.45a155.89,155.89,0,0,0-15.29,4.12"/><path id="sleeve" class="cls-1" d="M1242.06,503.66a9,9,0,0,0-4.36-3.34c-8.09-3.11-10.68-5.62-10.68-5.62,10.49-16.74,0-44.49,0-44.49s2.75-.75,11.24-2.5,5.75-10.49,17.25-11.49,110.22,10.25,110.22,10.25"/><path id="sleeve-2" data-name="sleeve" class="cls-1" d="M1363.74,524.12s-52.83-3.58-85.89-6.64"/><path id="line" class="cls-1" d="M1359,416.72s-18.73,1.83-23.49,26.41"/><path id="welt" class="cls-5" d="M1236.33,501.49c-8.76-3.3-11.56-5.95-11.56-5.95,11.36-17.73,0-47.11,0-47.11s3-.79,12.17-2.64c3.7-.75,5.43-2.7,7-4.82,18.83,21.36,5.79,51.47.76,65.07C1240.28,502.16,1243,504,1236.33,501.49Z"/></g><path id="shadow" class="cls-5" d="M1161.3,282.93l2.91-1.38c0,5.39.44,10.25.6,14.05,1.15,26.59,11.13,42.08,16.21,52.69-17-10.49-32.55-33.05-40.23-47.94Q1150.42,291.55,1161.3,282.93Z"/><path id="shadow_II" data-name="shadow II" class="cls-5" d="M1283.61,352.92c9.13-4.2,43.93-30.75,58-58.51A225.82,225.82,0,0,1,1376,315.94c-9.87,5.66-66.53,37.49-92.53,37.29Z"/><path id="string_II" data-name="string II" class="cls-6" d="M1279.5,346s-19.12,39.79-21.74,66.82"/><path id="string" class="cls-6" d="M1190.87,347.73s8.79,38.08,5.9,65.08"/><g id="hand-5" data-name="hand"><g id="hand_II" data-name="hand II"><path id="hand-6" data-name="hand" class="cls-1" d="M967.07,312.64C960,315.12,932.51,316,932.51,316s-9.81-6.58-17.35-6.75-8.23-5.06-4.58-10.77,22.72-1.34,26.24-.86.24-16.78.24-16.78-18.59-6.52-27.59-4.13-26.15,3.58-27.47-2.33c-.53-2.42,20.68-9.85,24.74-9.93s30.48-1.52,30.48-1.52,12.83,1.73,23.74,3.17c9.68,1.27,18.91,4.14,24.84,12.44,1.86,2.61,4,5.56,6.21,8.78"/></g><path id="sleeve-3" data-name="sleeve" class="cls-1" d="M966.14,367.84a156.54,156.54,0,0,1-8.95-13.63c-6-12,4.29-14.58.84-24s-3.24-13.63-3.24-13.63c22.65-3.6,38.9-34,38.9-34s2.76,1.83,10.77,7.93,13.56-3,23.21,6.31c5.84,5.63,32.17,42.67,52,71"/><path id="welt-2" data-name="welt" class="cls-5" d="M957.23,327.11c-3.38-9.05-3.22-13-3.22-13,21.49-3.19,36.61-31.94,36.61-31.94s2.64,1.77,10.31,7.67c3.09,2.37,5.78,2.39,8.49,2.16-3.83,29.12-40.66,45.77-54.64,51.09C954.8,337,959.79,334,957.23,327.11Z"/></g><g id="head"><path id="ear" class="cls-1" d="M1300.62,185c4.34.38,20.59,3,17.15,20.18-2.74,13.71-15.29,12.46-22.77,10.38"/><path id="face" class="cls-1" d="M1186.28,152.78c-3,22.71-1.75,47,.51,65.55"/><path id="beard" class="cls-1" d="M1285.32,187.66s-11.19,26.31-13.6,36.19c0,0-24.45-8.31-59.46-8.81,0,0-19.1.38-26.71,2.67,0,0,1.65,35,17.13,53.11s48.21,13.05,63.57,2.16,17.89-16.1,21.44-27.75,12.94-55.12,12.94-55.12Z"/><path id="hair" class="cls-5" d="M1297.65,196.57s10.41-16.11,14.42-32.85c3.78-15.73-3.54-32.23-18.1-39.28-12.2-5.9-21.24-1.27-21.24-1.27s12.94-22-6.47-41.49a35.4,35.4,0,0,0-26-10.36,34.08,34.08,0,0,0-31,20.74s-25.38-46.63-77.41-19c-5.25,2.78-11.16,10.54-14,15.77-17.18,31.66,39.46,69.18,69,72.15,32.37,3.26,51.33-2.11,61.75-10C1240.78,155.58,1249.5,204,1297.65,196.57Z"/><path id="mouth" class="cls-5" d="M1234.69,239.27s-8,7.33-16.55,5.83c0,0,3.42,12.51,11.57,10.63S1234.69,239.27,1234.69,239.27Z"/><polyline id="nose" class="cls-1" points="1210.89 201.56 1207.62 230.06 1218.14 229.31"/><ellipse id="eye_II" data-name="eye II" class="cls-5" cx="1196.51" cy="197.62" rx="3.12" ry="4.83"/><ellipse id="eye" class="cls-5" cx="1226.58" cy="197.09" rx="3.12" ry="4.83"/><path id="brow_II" data-name="brow II" class="cls-1" d="M1243.26,179.2a14.31,14.31,0,0,0-13.55-5.33"/><path id="brow" class="cls-1" d="M1202.49,174.36s-10.13-3.25-12.3,3.84"/></g></g><path id="laptop" class="cls-1" d="M971.42,527.82a6.34,6.34,0,0,1-6.17-4.88l-34.8-147.31a6.33,6.33,0,0,1,6.17-7.79h224.06a6.34,6.34,0,0,1,6.17,4.88L1198,504.57h81.21s4.5,23.25-21.74,23.25"/><g id="hot_coffie" data-name="hot coffie"><path id="handle" class="cls-1" d="M1483.47,491.61a15.27,15.27,0,1,0-.12-29.54"/><path id="mug" class="cls-1" d="M1439.65,456.1h23.66a20,20,0,0,1,20,20v46.7a0,0,0,0,1,0,0h-63.74a0,0,0,0,1,0,0v-46.7A20,20,0,0,1,1439.65,456.1Z" transform="translate(2902.96 978.93) rotate(-180)"/><path id="steam" class="cls-1" d="M1451.13,438.52c-1.61,17.42,29.73-23.08,25.35-46.46s-21.2-22.5-28.26-35.65c-4.25-7.93-3.92-13.13-3-16a1.08,1.08,0,0,0-1.54-1.3c-8.22,4.47-29.81,19.13-22.64,46.84C1432.83,427.12,1454.39,403.09,1451.13,438.52Z"/></g></g><g id="woman"><g id="hand-7" data-name="hand"><path class="cls-1" d="M588.33,140.51s9.54-8.91,14.14-5.24,10.44,13,15.88,12.66,1.52-6.68-.23-11.22-10.47-15.1-19.23-15.66a91.08,91.08,0,0,0-13.75,0s-17.28-1.8-25,26.36C552.21,176.43,530.28,256,530.28,256L473.6,282.15"/><path class="cls-1" d="M507.36,347.18l49.88-33.07a66.05,66.05,0,0,0,29.33-49.46c3.1-36.4,8.56-92.95,13.55-107.11"/><path class="cls-1" d="M587.84,140.79c4.6-1.08,17.3-1.25,24.25,5.05s.83,9.31-5,6.83-16.85,7.12-16.85,7.12"/><path class="cls-1" d="M588.43,129.89s12.41.85,17.25,5.25,10.63,15.17,16.68,15.2,2.17-7.3.57-12.46-10.94-15-20.62-16.23"/><path id="pencil" class="cls-3" d="M558,99.47l-4.71,6.2,71.51,54.07L632.7,162a.76.76,0,0,0,.88-1.09l-4.05-7.4Z"/></g><path id="shirt" class="cls-1" d="M364.78,301c-14,2.12-47.11,7.55-56.45,12.62-5.66,3.09-24.13,7.22-42.59,47.54"/><path id="shirt-2" data-name="shirt" class="cls-1" d="M482.38,486.72l-4.33-36.92s20.51-17.48,20.23-41a114.91,114.91,0,0,0-8-41l20.94-13.54-41.69-76.63s-15.89,4.55-35.47,9.56"/><g id="head-2" data-name="head"><path id="neck-2" data-name="neck" class="cls-1" d="M430.53,286.08l-2.38,17.48,10.28,1.95c1.52,2.64,18.89,36.11-26.28,38.85-29.46,1.79-59.76-16.16-74.83-36.91l29.51-7.08,10.67-39.76"/><path id="ear-2" data-name="ear" class="cls-1" d="M368.78,243.57S342.32,252,339,226.91c-2.53-19.07,16.25-21.56,25.47-21.65"/><path id="face-2" data-name="face" class="cls-1" d="M467.88,212.34c1.35,11.5,1.51,65-34.88,71.68s-63.76-24.75-70.19-58.8,6.76-63.83,29.7-68.62S458.13,129.11,467.88,212.34Z"/><g id="hair-2" data-name="hair"><rect class="cls-3" x="337.66" y="121.2" width="13.29" height="23.4" transform="translate(708.66 74.15) rotate(149.73)"/><circle class="cls-5" cx="327.81" cy="107.41" r="23.4"/><path id="hair-3" data-name="hair" class="cls-5" d="M353.53,132.71C372.68,122.24,394,115,414.81,118.85c63.59,15,72.37,59,51.72,83.89h0c-5.17-31.4-15.76-45-27.89-50.07-8.06,21-42.76,44.57-77.36,51.75l0,1c-9.74.67-24.53,4.46-22.27,21.52,3.13,23.54,26.53,17.6,29.49,16.75.77,1.76,8.87,17.45,8.87,17.45l-9.84,27-70.2,1a7,7,0,0,1-8.18-7.87C293,251.8,292.17,167.31,353.53,132.71Z"/></g><path id="mouth-2" data-name="mouth" class="cls-1" d="M434.68,253.66s-8.06,4.86-13.48-4.93"/><polyline id="nose-2" data-name="nose" class="cls-1" points="434.07 234.46 445.12 233.66 434.37 190.66"/><path id="brow-2" data-name="brow" class="cls-1" d="M402.39,190.21s8-8,14.9-2"/><path id="brow_II-2" data-name="brow II" class="cls-1" d="M448.78,188.64s7.7-5,12.15.88"/><ellipse id="eye-2" data-name="eye" class="cls-5" cx="415.05" cy="208.87" rx="3.67" ry="5.68" transform="translate(-0.88 1.75) rotate(-0.24)"/><ellipse id="eye_II-2" data-name="eye II" class="cls-5" cx="456.49" cy="206.95" rx="3.67" ry="5.68" transform="translate(-0.87 1.93) rotate(-0.24)"/><g id="glasses"><ellipse class="cls-2" cx="402.39" cy="205.57" rx="23.31" ry="30.72" transform="translate(-8.44 17.43) rotate(-2.46)"/><ellipse class="cls-2" cx="468.54" cy="204.06" rx="23.31" ry="30.72" transform="translate(-8.31 20.27) rotate(-2.46)"/><line class="cls-2" x1="444.2" y1="200.6" x2="425.71" y2="201.34"/><line class="cls-2" x1="378.09" y1="200.62" x2="356.9" y2="206.19"/></g></g><g id="hand_II-2" data-name="hand II"><path class="cls-1" d="M519.76,512.17c-.34-3.2-11.58-11.42-20.29-17.44-14.59-10.1-37.86-12.58-37.86-12.58s-4.62-.38-6.4-.5h-.12L317.23,467.82l10.93-65-61.92-40.38c-17.59,41.38-20.14,110.79-12.39,134.31,3.14,9.53,14,17.66,23.87,19.18,82.5,12.66,188.18.56,188.18.56l1.37.14c5.5,1.76,18.8,7.68,18.8,7.68,12,5,10.85-1.06,6.84-5.17a20.92,20.92,0,0,1,2,2.06c4.06,3.5,10.2,1.91,11.13.53s-3.54-5.18-9.46-11.27l.7.49c9.82,10.69,21.26,13.59,19.46,6.55A14.57,14.57,0,0,0,514,514C517.29,514.9,520,514.91,519.76,512.17Z"/><path class="cls-4" d="M494.9,521.4c-5.28-6.44-19.8-13.1-19.8-13.1,1.63.11,11.58,5.89,16.54,9.87"/><path class="cls-4" d="M479.37,498.47s11.06,5.87,17.05,12"/><path class="cls-1" d="M516.73,517.64c-.68-2.64-24-25-32.4-28.81-6.48-2.91-16.1-6-29.24-7.09"/></g></g><line id="line-2" data-name="line" class="cls-4" x1="3" y1="527.82" x2="1659.57" y2="527.82"/></g></g></svg>