<?xml version="1.0" standalone="no"?>
<!DOCTYPE svg PUBLIC "-//W3C//DTD SVG 20010904//EN"
 "http://www.w3.org/TR/2001/REC-SVG-20010904/DTD/svg10.dtd">
<svg version="1.0" xmlns="http://www.w3.org/2000/svg"
 width="512.000000pt" height="512.000000pt" viewBox="0 0 512.000000 512.000000"
 preserveAspectRatio="xMidYMid meet">
<metadata>
Created by potrace 1.16, written by Peter Selinger 2001-2019
</metadata>
<g transform="translate(0.000000,512.000000) scale(0.100000,-0.100000)"
fill="#000000" stroke="none">
<path d="M1037 4972 l-197 -149 -133 24 c-72 13 -261 47 -419 77 -221 41 -288
50 -288 39 0 -7 2 -13 3 -13 2 0 170 -31 373 -69 203 -38 390 -72 415 -76 43
-6 47 -9 52 -40 3 -18 6 -277 7 -575 l1 -543 -38 6 c-21 4 -79 12 -130 18
l-91 12 -71 -42 c-69 -41 -71 -43 -71 -81 0 -22 5 -40 10 -40 6 0 10 15 10 33
0 29 6 35 59 64 l59 33 4 -25 c4 -21 -5 -31 -68 -75 -40 -28 -76 -55 -79 -60
-21 -33 -25 12 -25 260 l0 270 -22 4 c-53 11 -217 36 -238 36 -12 0 -35 -9
-51 -20 -45 -33 -89 -45 -100 -29 -5 8 -9 -93 -9 -247 l0 -261 63 -7 c34 -4
192 -20 352 -37 322 -33 554 -61 720 -87 102 -16 110 -19 113 -41 3 -22 1 -23
-35 -17 -74 12 -610 75 -773 91 -91 9 -219 23 -285 31 -141 17 -155 17 -155 4
0 -15 18 -17 420 -60 465 -49 660 -72 660 -80 0 -3 -30 -14 -66 -24 -77 -22
-91 -22 -545 29 -429 47 -469 50 -469 37 0 -7 10 -14 22 -17 27 -5 780 -85
809 -85 18 0 19 -13 19 -484 l0 -484 -36 -7 c-34 -6 -36 -8 -32 -39 l4 -32
-86 4 c-50 2 -95 -1 -110 -7 -22 -10 -23 -11 -2 -7 14 3 22 -1 22 -10 0 -18
-46 -19 -54 -1 -4 6 -4 2 -2 -10 2 -12 -2 -27 -10 -34 -8 -6 -14 -29 -14 -50
0 -37 0 -38 -42 -41 -39 -3 -44 -6 -49 -33 -4 -16 -7 -69 -8 -117 l-1 -88 -31
0 c-42 0 -28 -17 21 -25 83 -14 45 -23 -78 -18 -70 3 -128 6 -129 7 -1 1 -4
17 -6 36 -7 59 -16 70 -56 71 -33 0 -34 1 -13 11 27 13 28 32 4 57 -19 21
-145 36 -139 17 2 -6 29 -12 59 -14 34 -2 61 -9 68 -17 11 -13 2 -15 -59 -15
-82 0 -97 -17 -19 -22 66 -4 62 -23 -5 -23 -32 1 -47 -3 -47 -12 0 -10 23 -13
90 -13 64 0 92 -4 94 -13 17 -52 16 -67 -3 -67 -11 0 -21 9 -24 21 -3 12 -10
18 -16 14 -6 -3 -11 -1 -11 4 0 7 -26 11 -65 11 l-65 0 0 -185 1 -185 28 0
c33 0 41 -17 41 -97 l0 -53 -35 0 c-19 0 -35 -4 -35 -10 0 -6 87 -11 228 -13
l227 -2 -227 -3 c-144 -1 -228 -6 -228 -12 0 -6 95 -10 265 -10 290 0 275 3
259 -58 l-6 -22 -259 0 c-234 0 -259 -2 -259 -17 0 -15 22 -15 255 -9 l255 7
0 -23 c0 -78 -81 -602 -95 -616 -12 -12 -343 -8 -355 4 -6 6 -21 64 -34 130
l-24 119 0 -70 c-2 -93 21 -185 50 -209 21 -17 37 -18 183 -13 88 3 174 8 190
12 17 3 126 11 244 16 l214 10 27 -33 c21 -24 24 -34 14 -36 -23 -6 -16 -19
14 -25 15 -3 108 -11 207 -18 99 -6 184 -15 188 -19 4 -4 -31 -10 -79 -13 -48
-3 -90 -10 -94 -16 -3 -6 -30 -14 -59 -18 -28 -3 -53 -9 -56 -13 -2 -3 202
-75 453 -158 l457 -152 160 1 c175 0 625 47 627 64 1 6 -57 36 -128 67 -71 31
-138 66 -149 77 -28 29 -159 87 -291 130 -62 20 -113 41 -113 46 -1 10 83 20
234 29 44 3 98 9 120 14 22 5 56 12 76 15 34 5 36 4 36 -24 0 -28 -2 -29 -45
-29 -71 0 -43 -11 81 -31 63 -10 217 -48 343 -85 189 -55 381 -102 535 -131
40 -7 776 60 1164 107 88 11 234 27 325 37 156 17 180 28 65 32 l-40 1 35 21
c44 27 55 42 75 107 9 29 26 57 36 63 16 8 19 21 19 82 l-1 72 -48 -133 c-26
-73 -56 -141 -66 -152 -25 -28 -64 -36 -255 -54 -91 -9 -282 -27 -425 -41
-838 -81 -882 -84 -903 -63 -21 21 -38 -47 215 858 129 462 139 498 158 526
27 41 73 55 167 49 46 -2 325 -7 621 -10 l537 -6 0 141 0 142 -125 -4 c-80 -2
-124 1 -122 7 3 6 50 9 125 6 l122 -4 0 29 c0 22 -3 26 -10 14 -6 -9 -10 -10
-10 -3 0 6 5 15 10 18 6 3 10 28 10 55 0 43 -2 48 -20 43 -25 -7 -26 9 -2 30
12 11 18 34 20 79 2 62 2 62 -13 33 l-14 -30 6 30 c3 17 10 33 15 36 10 7 0
56 -12 64 -13 8 -78 -74 -92 -114 -11 -35 -12 -35 -19 -11 -4 14 -7 676 -8
1473 l-1 1447 -30 0 -29 0 -3 -157 -3 -158 -155 -55 c-150 -53 -155 -56 -166
-89 l-11 -34 -319 -112 -319 -111 -3 358 -2 358 -35 0 -35 0 0 -369 c0 -387 1
-381 -41 -381 -5 0 -9 154 -9 375 l0 375 -40 0 -40 0 0 -389 0 -388 -146 -52
c-80 -29 -152 -55 -158 -57 -7 -3 -18 7 -24 21 -34 73 -162 168 -272 201 -27
8 -74 29 -105 47 l-55 32 -2 295 -3 295 -2 -294 c-3 -261 -5 -292 -19 -287 -9
3 -22 6 -30 6 -12 0 -14 46 -14 285 l0 285 -25 0 -25 0 -3 -277 -2 -278 -3
278 -2 277 -35 0 -35 0 0 -269 0 -268 -36 -6 c-20 -4 -60 -15 -88 -26 -28 -10
-82 -26 -121 -36 -96 -23 -158 -58 -236 -135 -101 -100 -162 -217 -215 -416
-23 -86 -27 -128 -33 -314 -7 -195 -9 -218 -29 -249 -11 -19 -18 -39 -15 -45
4 -6 -2 -4 -12 4 -10 8 -16 10 -12 3 4 -6 2 -15 -4 -19 -8 -4 -9 -3 -5 4 14
23 -6 11 -72 -42 -70 -55 -105 -96 -148 -169 l-25 -42 3 1013 c3 811 1 1012
-9 1012 -10 0 -13 -213 -12 -1072 1 -590 5 -1062 9 -1048 6 19 8 13 9 -30 1
-56 24 -117 62 -171 23 -33 28 -30 -78 -53 -89 -19 -180 -64 -224 -111 -76
-80 -153 -243 -217 -460 -19 -66 -35 -101 -45 -103 -12 -2 -16 5 -15 30 0 58
-4 88 -13 94 -5 3 -6 16 -3 29 5 20 2 24 -33 29 -21 3 -87 8 -148 11 -60 4
-118 9 -127 11 -17 5 -18 36 -18 480 l0 474 46 0 c25 0 84 11 132 24 92 26
172 41 172 33 0 -3 -21 -17 -46 -32 -60 -35 -50 -44 13 -11 73 39 83 49 83 89
l0 36 -60 7 c-38 4 -60 11 -60 19 0 7 -7 18 -15 25 -8 7 -15 20 -15 30 0 11
-10 20 -29 23 -22 5 -29 12 -28 27 1 11 8 20 18 20 11 0 18 12 22 37 4 21 3
41 -1 45 -8 8 -171 38 -207 38 -21 0 -22 5 -28 122 -4 66 -7 330 -7 584 l0
464 73 54 c232 172 338 256 321 256 -11 0 -108 -67 -217 -148z m3871 -217 c-9
-9 -291 -106 -300 -103 -5 2 58 27 139 55 144 50 172 58 161 48z m0 -107 c-3
-7 -94 -44 -204 -81 -579 -199 -847 -288 -857 -284 -16 6 7 15 288 112 132 46
357 124 500 174 143 49 264 90 268 90 5 1 7 -5 5 -11z m-1948 -135 l45 -20
-92 1 c-61 1 -96 -3 -104 -11 -7 -7 -18 -13 -23 -13 -6 1 0 10 14 22 l25 21
-25 -8 c-14 -4 -35 -17 -47 -28 -13 -11 -23 -16 -23 -10 0 11 35 44 65 62 28
16 111 8 165 -16z m1958 -272 l-3 -273 -175 -58 c-249 -82 -425 -148 -399
-150 3 0 43 14 90 31 46 18 174 62 284 99 l200 68 3 -150 c1 -83 1 -153 -2
-155 -2 -2 -27 7 -55 21 l-51 26 0 -320 c0 -188 -4 -320 -9 -320 -5 0 -17 -3
-26 -6 -15 -6 -16 8 -13 150 2 86 1 156 -1 156 -19 0 -143 -44 -133 -47 8 -3
12 -30 12 -89 0 -83 0 -84 -30 -99 l-30 -16 0 116 c0 63 -3 115 -7 115 -5 0
-63 -16 -130 -36 l-123 -37 0 -89 c0 -80 2 -89 18 -85 9 3 59 15 110 27 l92
22 0 58 0 57 -96 -28 c-53 -16 -100 -29 -105 -29 -5 0 -9 12 -9 28 0 26 5 29
106 60 58 18 112 31 120 28 12 -5 14 -33 12 -153 l-3 -147 -95 -18 c-135 -24
-140 -24 -140 11 0 27 5 31 53 45 28 8 70 18 92 22 22 3 47 11 55 16 20 12
-45 2 -135 -21 l-70 -17 -3 -47 c-3 -41 -1 -47 17 -47 24 0 391 67 440 80 l34
9 -5 -64 c-5 -51 -3 -62 8 -58 11 4 14 -9 14 -59 l0 -63 45 3 45 4 0 -41 0
-41 -40 0 c-22 0 -40 5 -40 10 0 6 -3 10 -7 10 -5 0 -7 -150 -7 -333 l1 -332
-36 -33 c-23 -22 -32 -35 -23 -38 6 -3 12 -10 12 -15 0 -11 -323 -12 -628 -2
l-212 6 0 549 0 550 33 -7 c17 -4 41 -9 52 -13 18 -5 18 -6 -5 -13 l-25 -7 24
-1 23 -1 -4 -180 -5 -180 46 -1 c40 -2 36 -3 -31 -13 -42 -6 -80 -14 -84 -18
-10 -10 -2 -10 156 7 74 8 140 15 146 15 8 0 10 109 6 403 l-5 404 74 27 c41
15 149 54 241 87 153 53 269 102 198 83 -14 -4 -131 -44 -260 -90 -129 -46
-240 -84 -246 -84 -8 0 -11 20 -9 61 l3 60 -36 -3 -37 -3 -3 -462 -2 -463 -65
0 -65 0 0 189 c0 209 5 194 -74 206 l-46 7 0 549 0 548 483 159 c265 88 486
157 490 153 4 -4 6 -130 5 -280z m-2250 207 c50 -24 140 -112 191 -185 18 -26
24 -38 13 -26 -10 12 -37 42 -59 67 -42 47 -97 75 -157 77 -29 2 -28 2 9 9 22
4 34 8 26 9 -28 2 -121 52 -116 61 10 16 46 11 93 -12z m422 0 c83 -15 86 -23
11 -24 -79 0 -153 -25 -175 -58 -8 -13 -16 -43 -19 -67 l-4 -44 -1 51 c-2 59
18 93 68 114 16 7 27 16 24 21 -10 16 -108 9 -151 -11 -49 -22 -58 -18 -13 5
67 35 131 38 260 13z m153 -62 c59 -22 134 -96 173 -170 l28 -53 130 43 c126
43 167 53 136 35 -26 -16 -250 -91 -250 -84 0 4 -2 4 -5 1 -3 -3 2 -34 11 -69
9 -35 20 -95 24 -134 l8 -70 -1 73 -2 73 111 34 c61 19 116 35 122 35 9 0 12
-72 12 -280 0 -154 -3 -280 -7 -280 -5 0 -51 11 -103 25 -52 13 -94 23 -95 22
0 -1 2 -157 5 -347 l6 -345 2 260 c2 143 3 295 2 339 -1 78 -1 79 22 73 13 -4
56 -14 96 -24 l72 -17 0 -738 0 -738 -74 0 -74 0 -4 138 c-3 97 -9 148 -21
175 l-16 37 47 1 c26 1 37 4 25 6 -21 4 -23 11 -25 71 l-2 67 -3 -67 c-3 -59
-6 -68 -23 -68 -12 0 -30 16 -45 40 l-25 40 0 371 c0 205 -2 370 -5 368 -2 -3
-5 -143 -5 -312 l-1 -307 -52 -2 -52 -2 53 -3 52 -4 0 -49 0 -50 -77 51 c-43
28 -79 52 -82 54 -2 2 4 25 13 51 35 105 12 181 -82 263 -42 38 -58 59 -55 72
6 23 69 96 95 110 20 11 20 9 17 -99 -3 -61 -1 -108 4 -105 4 3 7 54 6 114 -1
93 1 113 16 129 10 11 22 20 26 20 5 0 10 -35 12 -77 l3 -78 1 82 c0 75 3 85
28 115 16 18 36 50 45 71 11 23 20 33 23 25 2 -7 5 -2 5 12 2 224 1 239 -17
283 -15 38 -14 119 3 189 9 41 11 82 5 150 -15 173 -58 288 -137 367 -101 101
-238 107 -329 16 -24 -23 -43 -38 -43 -33 0 5 23 32 51 59 53 51 51 59 -6 35
-42 -18 -45 -13 -8 11 26 17 172 35 183 22 3 -3 27 -13 53 -23z m-640 -13 c-7
-2 -19 -2 -25 0 -7 3 -2 5 12 5 14 0 19 -2 13 -5z m685 -100 c121 -97 176
-279 153 -513 -11 -116 -10 -131 9 -204 24 -94 26 -174 5 -244 -19 -63 -45
-94 -151 -183 -65 -54 -89 -82 -113 -130 -17 -34 -31 -70 -31 -80 0 -11 14
-62 31 -114 16 -53 28 -104 26 -113 -3 -12 -5 -10 -6 6 0 12 -15 51 -33 85
-29 55 -32 71 -33 145 l0 83 60 57 c33 31 88 78 122 104 87 66 114 111 121
198 4 57 0 85 -23 157 -26 85 -27 90 -15 181 33 244 -44 517 -162 578 -33 17
-88 18 -124 2 l-27 -13 24 -6 c20 -6 19 -7 -8 -6 -35 1 -77 -30 -86 -65 -5
-18 -2 -20 29 -15 23 4 32 2 28 -5 -4 -6 3 -5 16 2 12 7 20 8 17 3 -4 -6 4
-15 16 -22 58 -31 107 -159 107 -279 l0 -79 -27 4 c-16 2 -50 -3 -78 -10 -40
-10 -53 -19 -67 -46 -39 -78 -92 -93 -155 -45 -18 14 -50 32 -70 41 -50 20
-179 19 -230 -2 -39 -17 -96 -15 -175 6 l-38 10 20 51 c11 30 40 73 67 101 27
28 41 46 33 42 -8 -4 -4 3 9 15 15 14 20 25 13 28 -17 5 20 71 64 112 20 19
34 29 29 22 -6 -11 -3 -12 14 -3 11 7 21 14 21 17 0 3 -5 2 -12 -2 -7 -4 -8
-3 -4 5 4 6 11 9 15 7 4 -3 34 6 67 20 l59 25 -47 -5 c-26 -3 -88 -21 -137
-40 -49 -19 -133 -46 -187 -61 -54 -14 -118 -36 -141 -50 -24 -13 -41 -20 -38
-14 12 19 88 50 183 75 53 15 135 42 182 62 83 35 142 43 299 44 17 0 20 3 12
11 -6 6 -11 15 -11 20 0 5 10 -3 23 -19 l22 -29 6 35 6 35 2 -37 c1 -51 27
-50 62 1 59 84 180 105 257 44z m-839 -27 c-2 -2 -15 -9 -29 -15 -24 -11 -24
-11 -6 3 16 13 49 24 35 12z m820 -62 c41 -47 80 -132 87 -194 3 -23 -2 -14
-14 25 -28 95 -60 152 -110 196 -26 23 -37 37 -26 31 12 -7 40 -32 63 -58z
m456 7 c-16 -14 -234 -83 -248 -78 -6 2 42 22 108 45 121 41 157 50 140 33z
m145 -188 c0 -71 3 -550 7 -1066 l6 -938 -22 -29 c-31 -43 -27 -50 32 -50 28
0 261 -5 517 -11 510 -11 490 -8 490 -71 0 -33 21 -31 -245 -18 -104 5 -345
14 -535 19 -190 6 -387 14 -437 17 l-93 6 0 35 0 35 118 -4 117 -4 -3 1090
c-2 1022 -2 1092 15 1103 9 7 20 13 25 13 4 0 8 -57 8 -127z m-3580 18 l105
-17 3 -264 c1 -145 -1 -261 -5 -257 -3 4 -9 97 -13 206 -4 143 -10 204 -19
215 -15 18 -91 23 -91 6 0 -5 -17 -10 -37 -10 -21 0 -57 -9 -80 -20 l-43 -19
0 76 c0 111 4 113 180 84z m1940 -5 c0 -2 -8 -10 -17 -17 -16 -13 -17 -12 -4
4 13 16 21 21 21 13z m175 -43 c-41 -55 -76 -92 -110 -116 -17 -12 -8 1 22 31
29 29 64 68 79 87 14 19 29 35 31 35 3 0 -7 -17 -22 -37z m-2315 -218 c0 -218
-2 -245 -16 -245 -14 0 -16 24 -13 235 3 152 0 235 -6 235 -11 0 16 20 28 20
4 0 7 -110 7 -245z m3277 158 c-3 -10 -5 -4 -5 12 0 17 2 24 5 18 2 -7 2 -21
0 -30z m-3024 -130 c10 -159 9 -303 -3 -303 -5 0 -10 6 -10 13 0 6 -6 71 -14
142 -29 262 -29 255 -2 255 22 0 23 -3 29 -107z m3034 60 c-3 -10 -5 -2 -5 17
0 19 2 27 5 18 2 -10 2 -26 0 -35z m-3107 -3 c0 -33 -3 -40 -20 -40 -16 0 -20
7 -20 34 0 24 5 36 18 39 9 3 18 5 20 6 1 0 2 -17 2 -39z m3117 -102 c-2 -13
-4 -3 -4 22 0 25 2 35 4 23 2 -13 2 -33 0 -45z m-3354 -85 c3 -79 2 -133 -4
-133 -5 0 -9 59 -9 137 0 75 2 134 4 132 2 -2 6 -64 9 -136z m221 131 c14 -5
16 -28 16 -154 0 -143 -1 -148 -20 -143 -19 5 -20 14 -20 154 0 82 2 149 4
149 2 0 11 -3 20 -6z m1998 -21 c8 -10 26 -37 38 -60 13 -24 29 -43 36 -43 7
0 14 -5 16 -12 6 -17 24 -2 42 32 9 19 11 30 4 30 -6 0 -9 2 -6 6 6 6 163 -33
190 -47 12 -7 18 -21 18 -47 0 -92 60 -142 170 -142 82 0 117 20 165 95 52 81
65 75 105 -45 33 -102 34 -109 15 -130 -10 -11 -14 -20 -8 -20 5 0 18 9 27 19
16 17 16 22 2 54 l-14 35 36 -15 c24 -10 56 -14 95 -11 l59 4 -6 -45 c-7 -48
-46 -120 -124 -226 -24 -33 -57 -85 -73 -116 -42 -85 -77 -109 -152 -109 -104
0 -260 74 -380 180 -54 47 -71 82 -102 203 l-23 92 -32 -3 c-17 -2 -38 2 -46
9 -17 14 -19 49 -3 49 7 0 9 11 4 33 -4 17 -8 57 -8 87 -1 32 -8 63 -17 74
-31 39 -55 56 -77 56 -39 0 -46 -32 -39 -167 5 -106 4 -130 -13 -176 -32 -92
-101 -198 -182 -282 -43 -44 -89 -100 -103 -125 -14 -25 -26 -40 -26 -34 0 21
78 128 130 178 60 58 109 131 153 223 31 67 32 70 32 224 0 170 5 189 55 189
15 0 34 -8 42 -17z m988 -16 c0 -22 -4 -23 -67 -23 -47 0 -79 -5 -103 -18 -34
-18 -34 -18 -17 0 18 20 128 61 165 63 17 1 22 -5 22 -22z m-909 -4 c13 -16
12 -17 -3 -4 -10 7 -18 15 -18 17 0 8 8 3 21 -13z m473 -8 c80 -21 116 -48
116 -87 0 -42 -44 -114 -80 -133 -65 -34 -188 -7 -215 46 -8 15 -15 48 -15 72
l0 44 52 -13 c80 -21 98 -19 98 12 0 16 5 24 13 22 6 -3 12 -10 12 -16 0 -6
10 -19 23 -28 l24 -16 -21 40 c-11 22 -27 42 -36 46 -27 10 -115 7 -137 -5
-15 -8 -19 -8 -13 1 19 32 92 38 179 15z m-584 -15 c-13 -8 -13 -10 0 -10 10
0 7 -5 -8 -16 -39 -27 -24 -103 29 -149 19 -17 19 -14 -4 13 -20 25 -27 44
-27 78 0 44 1 45 28 42 29 -3 32 -19 17 -79 -5 -19 0 -33 19 -56 18 -21 23
-34 15 -38 -6 -4 -9 -18 -6 -32 9 -49 -28 -18 -62 52 -53 108 -54 205 -2 205
14 0 14 -2 1 -10z m1094 -34 c37 -24 49 -60 35 -103 -12 -38 -65 -103 -83
-103 -6 0 -4 5 4 10 8 5 15 15 15 22 0 7 6 13 13 13 8 0 20 11 27 25 17 29 19
70 5 70 -5 0 -10 8 -10 18 0 26 -21 50 -50 57 -22 5 -28 1 -42 -27 -14 -31
-14 -39 1 -97 16 -61 15 -63 -4 -78 -25 -18 -106 -11 -142 12 -27 18 -53 71
-53 109 0 32 30 67 71 83 48 18 180 11 213 -11z m1604 -269 l-3 -212 -35 -3
c-19 -2 -38 -6 -42 -10 -4 -4 13 -5 37 -4 l45 4 0 -41 c0 -35 -3 -41 -22 -42
l-23 -2 23 -4 c21 -4 22 -8 22 -114 l0 -109 -39 0 c-43 0 -47 7 -58 118 -5 49
-4 52 19 53 23 2 23 2 1 6 l-23 4 0 310 0 309 50 -25 50 -26 -2 -212z m-4058
208 c242 -33 233 -31 224 -58 -3 -12 -7 -23 -8 -23 0 -1 -102 11 -226 27 -124
16 -228 29 -232 29 -5 0 -8 14 -8 31 0 30 2 31 33 25 17 -3 115 -17 217 -31z
m3385 -57 c-4 -35 -12 -69 -17 -75 -7 -9 -7 -13 1 -13 6 0 11 -12 11 -26 0
-24 -2 -25 -17 -13 -17 13 -17 13 0 -7 23 -28 24 -55 0 -31 -13 13 -18 39 -20
116 -4 104 -4 104 40 110 5 0 6 -27 2 -61z m-928 10 c-3 -8 -6 -5 -6 6 -1 11
2 17 5 13 3 -3 4 -12 1 -19z m-2459 -29 c181 -22 182 -22 182 -47 0 -23 -2
-24 -39 -18 -83 13 -298 36 -338 36 -24 0 -56 -9 -77 -21 -23 -13 -48 -19 -73
-17 l-38 3 42 23 c23 12 47 31 53 42 14 26 55 26 288 -1z m1329 -146 c-2 -21
-4 -6 -4 32 0 39 2 55 4 38 2 -18 2 -50 0 -70z m-1212 62 c55 -8 103 -15 108
-15 10 0 9 -40 -1 -40 -5 0 -87 11 -183 25 -96 14 -193 27 -216 31 -24 3 -43
10 -43 16 0 14 190 4 335 -17z m155 -55 c0 -5 -2 -10 -4 -10 -3 0 -8 5 -11 10
-3 6 -1 10 4 10 6 0 11 -4 11 -10z m3107 -89 c-1 -31 -6 -59 -12 -63 -6 -5 -6
-8 1 -8 8 0 12 -21 13 -56 0 -49 -2 -54 -15 -43 -12 10 -15 33 -13 111 1 54
-1 102 -5 105 -3 4 -6 15 -6 26 0 19 1 19 20 2 15 -14 19 -29 17 -74z m-1850
7 c-3 -8 -6 -5 -6 6 -1 11 2 17 5 13 3 -3 4 -12 1 -19z m-387 9 c0 -2 -10 -12
-22 -23 l-23 -19 19 23 c18 21 26 27 26 19z m175 -122 c-8 -30 -19 -56 -23
-59 -5 -3 -1 18 9 47 10 29 19 72 20 97 2 44 2 45 6 7 2 -21 -3 -62 -12 -92z
m2575 -19 c0 -135 -1 -144 -20 -149 -19 -5 -20 0 -20 138 0 128 2 144 18 148
9 3 18 5 20 6 1 0 2 -64 2 -143z m-2443 102 c-3 -7 -5 -2 -5 12 0 14 2 19 5
13 2 -7 2 -19 0 -25z m2389 -135 c-3 -7 -15 -13 -26 -13 -18 0 -20 6 -20 84 0
80 1 85 23 88 21 3 22 -1 25 -71 2 -41 1 -80 -2 -88z m-2756 144 c0 -1 -24
-25 -52 -52 l-53 -50 50 53 c46 48 55 57 55 49z m499 -111 c61 -98 302 -256
391 -256 24 0 24 7 1 -104 -19 -89 -19 -91 1 -190 35 -177 10 -425 -57 -556
-30 -58 -57 -77 -91 -61 -28 12 -43 41 -78 148 -15 45 -36 93 -47 107 -10 13
-19 39 -19 58 0 18 -9 52 -20 76 l-19 42 24 0 c13 0 36 -5 52 -10 26 -10 27
-9 8 5 -11 9 -36 18 -56 21 -36 6 -39 9 -93 125 -31 66 -72 166 -92 224 l-35
106 21 29 c37 53 52 111 57 235 6 114 6 118 18 78 7 -23 22 -57 34 -77z m-515
52 c-87 -93 -140 -194 -154 -293 l-9 -60 4 73 c3 56 10 84 35 130 28 52 133
182 148 182 3 0 -8 -15 -24 -32z m393 -35 c-3 -10 -5 -4 -5 12 0 17 2 24 5 18
2 -7 2 -21 0 -30z m2213 -17 l0 -44 -87 -21 c-116 -28 -115 -28 -111 16 l3 37
90 27 c50 15 93 27 98 28 4 1 7 -19 7 -43z m-2230 -70 c-18 -55 -78 -125 -143
-167 -33 -21 -65 -39 -71 -39 -6 0 18 17 53 38 74 42 146 130 157 190 4 20 9
31 11 25 3 -7 0 -28 -7 -47z m810 -21 c-62 -82 -75 -155 -44 -252 4 -14 4 -15
-4 -3 -6 8 -16 43 -23 77 -15 75 -8 96 65 186 63 77 67 72 6 -8z m1130 8 c0
-13 -3 -13 -15 -3 -8 7 -15 19 -15 27 0 13 3 13 15 3 8 -7 15 -19 15 -27z
m448 -74 c-29 -19 -38 -9 -38 41 0 43 3 52 23 59 21 8 22 6 25 -42 2 -33 -1
-53 -10 -58z m-60 -10 c-32 -21 -48 -10 -48 31 0 33 5 42 28 54 l27 14 3 -45
c2 -30 -1 -49 -10 -54z m-389 27 c0 -26 -2 -28 -9 -11 -7 16 -9 17 -9 3 -1 -9
4 -20 9 -23 12 -7 14 -205 3 -205 -5 0 -6 -25 -5 -56 2 -32 -1 -61 -7 -67 -13
-13 -13 -19 -13 193 1 240 -1 225 17 210 8 -7 15 -27 14 -44z m-1951 -98 c2
-67 77 -274 151 -413 58 -109 84 -177 79 -201 -3 -12 -11 2 -21 36 -9 30 -23
64 -30 74 -14 19 -15 19 -42 2 -15 -10 -53 -41 -84 -70 -31 -28 -78 -67 -105
-85 -56 -39 -61 -36 -71 48 -3 31 -17 113 -31 184 -13 70 -24 160 -24 200 0
70 1 74 43 124 58 71 121 141 128 142 4 1 7 -18 7 -41z m950 -45 c63 -52 102
-116 102 -170 0 -52 -27 -123 -47 -123 -11 0 -10 6 6 26 24 31 36 100 22 134
l-10 25 -1 -25 c-1 -14 -8 -41 -15 -60 l-13 -35 -1 31 c-1 16 -16 52 -33 79
-18 26 -41 60 -50 74 -17 25 -25 81 -12 81 4 0 27 -17 52 -37z m1019 -165 c-2
-29 -3 -6 -3 52 0 58 1 81 3 53 2 -29 2 -77 0 -105z m663 97 c0 -22 -4 -25
-40 -25 -36 0 -40 3 -40 25 0 23 4 25 40 25 36 0 40 -2 40 -25z m-1997 -87
c30 -46 70 -117 89 -158 19 -41 54 -108 77 -149 l42 -74 -40 36 c-68 62 -118
80 -140 53 -14 -17 -16 -36 -7 -96 l7 -45 -16 34 c-8 18 -15 54 -15 78 0 61
-28 246 -45 297 -21 66 -28 106 -16 106 5 0 34 -37 64 -82z m166 42 c11 -24
11 -24 -3 -6 -9 11 -16 24 -16 30 0 12 5 7 19 -24z m-1004 -9 c-6 -5 -66 -23
-134 -40 -116 -29 -151 -41 -122 -41 7 0 66 14 131 30 65 17 121 30 124 30 3
0 6 -35 6 -77 0 -44 11 -130 25 -198 14 -66 28 -150 32 -187 5 -56 9 -68 23
-68 24 0 122 67 204 139 38 34 72 61 76 61 8 0 44 -128 43 -152 -1 -13 20 -34
75 -74 3 -2 132 -348 203 -548 86 -239 85 -364 -6 -744 -19 -79 -35 -152 -35
-164 0 -20 -3 -20 -92 -13 -57 4 -99 12 -109 21 -20 18 -40 18 -65 -1 -21 -16
-109 -21 -118 -6 -3 4 -51 12 -106 15 l-100 8 21 40 c27 52 109 265 109 281 0
7 -15 -15 -33 -48 -45 -85 -72 -120 -146 -198 -61 -64 -66 -67 -100 -61 -45 8
-73 34 -116 104 -45 74 -82 187 -96 297 -18 133 -2 237 67 453 50 157 56 186
61 288 9 187 -20 312 -117 502 -56 107 -135 205 -184 225 l-29 12 56 21 c30
12 105 28 167 37 61 9 146 27 188 40 86 26 111 30 97 16z m1046 -58 c13 -16
12 -17 -3 -4 -17 13 -22 21 -14 21 2 0 10 -8 17 -17z m1787 -65 l-3 -53 -37
-3 -38 -3 0 50 c0 52 6 59 53 60 28 1 28 0 25 -51z m-1866 14 c34 -16 101 -41
148 -57 98 -32 200 -83 249 -125 33 -28 35 -33 39 -112 5 -101 -15 -215 -63
-357 -19 -58 -33 -106 -31 -108 7 -7 66 146 82 214 9 37 20 122 23 188 l7 120
22 -46 c39 -84 45 -136 39 -403 -4 -198 -10 -271 -26 -346 -11 -52 -30 -179
-43 -282 l-22 -187 -36 -4 c-31 -3 -31 -4 6 -3 31 0 52 -8 78 -28 44 -33 47
-17 5 27 -30 31 -31 33 -24 102 8 86 19 100 33 42 6 -24 19 -61 29 -83 13 -30
17 -59 15 -115 l-3 -76 -46 24 c-85 43 -266 20 -307 -38 -8 -11 -17 -16 -20
-11 -3 5 16 53 43 106 59 116 74 178 97 401 15 150 20 174 41 203 35 47 42 31
9 -19 -15 -23 -23 -38 -16 -34 15 9 55 75 65 105 6 21 1 19 -40 -20 -42 -41
-45 -43 -36 -17 6 16 8 33 5 38 -3 6 -1 16 5 23 16 19 104 213 91 200 -6 -7
-29 -39 -49 -73 -21 -33 -41 -58 -46 -53 -5 4 -5 1 -1 -5 4 -7 2 -21 -4 -30
-9 -14 -10 6 -7 82 5 97 5 99 -9 55 -8 -25 -19 -130 -24 -240 -22 -422 -52
-535 -190 -718 -33 -44 -92 -108 -131 -141 -38 -34 -67 -61 -64 -61 14 0 72
34 98 58 32 30 33 20 8 -53 l-18 -50 -69 -12 c-151 -25 -224 -30 -224 -16 0 8
18 86 40 175 59 231 71 332 68 527 -3 162 -2 168 24 230 16 35 26 66 24 68 -9
10 -66 -124 -67 -156 0 -29 -6 -18 -30 59 -35 108 -34 158 2 350 18 90 26 112
59 155 21 28 48 66 60 85 l22 35 -7 -45 c-3 -25 -24 -90 -46 -145 -52 -128
-56 -140 -25 -85 61 109 88 200 95 315 5 86 9 110 21 113 8 1 49 -20 90 -47
41 -27 77 -45 79 -40 1 6 -16 49 -39 97 -75 155 -129 272 -126 272 2 0 33 -13
68 -28z m-1408 -63 c57 -50 94 -103 145 -206 82 -166 98 -246 81 -398 -16
-141 -28 -181 -29 -99 -1 79 -32 196 -72 275 -31 63 -108 189 -114 189 -2 0
26 -57 61 -127 99 -198 137 -379 96 -459 -23 -44 -62 -85 -49 -51 13 34 19 67
13 67 -15 0 -43 -75 -146 -405 -17 -55 -52 -143 -77 -195 -49 -100 -56 -143
-31 -183 18 -28 40 -115 33 -128 -12 -19 -36 -8 -59 30 -33 52 -68 78 -130 96
-84 25 -175 30 -237 12 -48 -14 -107 -52 -97 -63 3 -2 29 6 59 18 40 16 77 21
145 22 82 0 96 -2 156 -32 78 -38 104 -72 30 -40 -102 45 -241 31 -372 -38
-67 -35 -145 -93 -136 -101 2 -3 43 19 91 47 96 58 213 100 279 100 23 0 67
-8 97 -17 l54 -16 -43 -8 c-24 -5 -64 -23 -89 -41 -49 -35 -116 -123 -132
-173 l-10 -30 17 25 c122 175 205 230 303 201 l39 -12 -36 -31 c-34 -30 -64
-78 -84 -136 -9 -23 -8 -24 2 -10 7 10 24 36 38 59 27 45 99 106 137 115 13 4
44 1 69 -6 l46 -13 -51 -24 c-63 -30 -136 -101 -151 -149 -18 -53 -4 -53 21 0
23 50 89 114 144 140 29 14 47 15 122 6 48 -5 93 -10 98 -10 6 0 -9 -9 -31
-20 -44 -22 -174 -166 -174 -192 0 -8 11 -25 25 -38 38 -36 22 -36 -30 0 -26
18 -49 30 -51 27 -10 -10 64 -62 134 -94 97 -44 125 -43 36 2 -38 19 -65 35
-59 35 5 0 4 5 -3 12 -23 23 -12 64 36 133 75 109 67 106 267 85 94 -11 200
-22 236 -25 l66 -6 -19 -37 c-24 -45 -19 -132 11 -191 l20 -38 -142 -17 c-141
-18 -562 -24 -604 -9 -38 13 -73 58 -94 120 -31 95 -35 69 -5 -40 14 -52 26
-101 26 -109 0 -11 -15 -12 -82 -6 -46 4 -159 12 -253 18 -93 6 -184 15 -202
21 -65 21 -103 136 -103 315 0 97 1 103 30 139 16 20 32 54 35 74 11 66 86
324 151 518 35 106 64 201 64 210 0 10 9 -1 20 -24 26 -58 32 -54 14 8 -9 28
-16 64 -16 80 l-1 29 -174 0 -173 0 0 25 0 25 179 0 c134 0 180 -3 184 -12 4
-14 25 30 55 115 13 40 14 51 4 55 -8 2 -10 8 -4 15 5 7 21 54 36 105 59 208
155 425 222 497 44 49 77 47 138 -6z m3276 -199 c0 -165 -2 -180 -17 -181 -15
0 -15 -2 2 -8 11 -5 40 -27 65 -50 l45 -42 -44 31 c-25 17 -51 28 -58 26 -7
-3 -13 -2 -13 3 0 5 -9 11 -20 14 -17 4 -15 0 10 -31 17 -20 30 -48 30 -62 0
-24 -4 -26 -40 -25 l-40 0 0 253 1 252 39 0 40 0 0 -180z m-1990 -106 c0 -20
-77 -150 -85 -143 -3 4 31 171 41 199 7 20 43 -26 44 -56z m2149 -91 c-10 -49
-19 -99 -19 -113 0 -15 -3 -20 -8 -13 -4 6 -7 42 -7 80 0 55 4 74 23 101 13
17 25 32 26 32 2 0 -5 -39 -15 -87z m-2519 37 c10 -19 10 -20 -9 -8 -22 13
-28 28 -11 28 5 0 14 -9 20 -20z m-1430 -38 c52 -7 49 -7 -50 -13 l-105 -5
103 -2 c69 -1 102 -6 102 -13 0 -9 -25 -10 -92 -5 -50 3 -106 6 -125 6 -26 0
-33 4 -33 20 0 18 7 20 73 20 39 0 97 -4 127 -8z m3897 -49 c-3 -10 -5 -2 -5
17 0 19 2 27 5 18 2 -10 2 -26 0 -35z m-73 -4 c14 -11 31 -30 37 -41 l11 -21
-28 20 c-37 27 -70 63 -57 63 6 0 22 -9 37 -21z m-4142 -7 c6 -6 10 -13 7 -14
-2 -2 -46 -2 -96 0 -76 3 -93 6 -93 19 0 13 13 15 85 11 47 -2 91 -10 97 -16z
m336 2 c23 -3 42 -9 42 -14 0 -9 -218 -3 -247 6 -60 18 79 24 205 8z m46 -45
c8 -9 -7 -10 -59 -5 -38 3 -100 6 -137 6 -45 0 -68 4 -68 12 0 15 249 3 264
-13z m-416 5 c71 -9 67 -27 -5 -20 l-58 5 58 -11 c66 -13 63 -3 47 -169 -13
-132 -11 -129 -80 -129 l-58 0 -11 45 c-6 25 -14 73 -18 108 -7 77 -17 97 -48
97 -20 0 -25 -5 -25 -25 0 -14 -4 -25 -10 -25 -6 0 -10 28 -10 65 l0 65 83 0
c45 0 106 -3 135 -6z m350 -24 c46 0 52 -2 52 -21 0 -17 -4 -20 -22 -15 -13 3
-67 6 -120 6 -93 0 -98 1 -98 21 0 21 3 22 68 16 37 -4 91 -7 120 -7z m3833
-7 c13 -16 12 -17 -3 -4 -17 13 -22 21 -14 21 2 0 10 -8 17 -17z m-54 -19 c13
-4 20 -11 17 -16 -3 -5 0 -8 7 -7 23 5 57 -11 63 -28 10 -24 2 -26 -35 -4 -19
10 -61 22 -94 26 -57 7 -58 8 -35 21 28 15 44 17 77 8z m116 -31 c6 -16 16
-31 20 -34 5 -4 5 -9 0 -12 -5 -3 -19 12 -31 34 -12 21 -18 39 -12 39 6 0 16
-12 23 -27z m-3793 8 c0 -6 -15 -11 -32 -13 -41 -4 -42 -21 -2 -30 32 -7 -207
0 -243 8 -13 2 -23 11 -23 19 0 12 25 15 133 18 72 1 140 4 150 5 9 1 17 -2
17 -7z m3880 -18 c0 -14 -3 -23 -7 -19 -4 3 -12 -6 -19 -21 l-12 -28 -1 25
c-1 23 23 70 35 70 2 0 4 -12 4 -27z m-240 -23 c0 -16 -7 -20 -35 -20 -35 0
-50 22 -22 33 31 13 57 7 57 -13z m-1157 -7 c-24 -2 -62 -2 -85 0 -24 2 -5 4
42 4 47 0 66 -2 43 -4z m-2580 -13 c62 0 77 -3 77 -15 0 -13 -22 -15 -135 -15
-106 0 -135 3 -135 13 0 24 14 29 65 23 28 -3 85 -6 128 -6z m3857 -24 c0 -2
-9 -2 -20 1 -11 3 -20 9 -20 15 0 5 9 4 20 -2 11 -6 20 -12 20 -14z m-4430
-53 c0 -21 -3 -55 -6 -75 -6 -32 -11 -38 -30 -38 -23 0 -24 3 -24 75 l0 75 30
0 c28 0 30 -2 30 -37z m647 23 c-4 -13 -222 -21 -246 -9 -14 7 59 13 222 19
16 1 26 -3 24 -10z m-7 -46 c0 -19 -7 -20 -125 -20 -118 0 -125 1 -125 20 0
19 7 20 125 20 118 0 125 -1 125 -20z m3000 -86 c245 -9 504 -19 575 -22 l130
-7 3 -32 3 -31 -58 4 c-32 2 -134 9 -228 14 -93 6 -300 20 -460 30 -159 11
-335 22 -390 25 -156 9 -185 14 -185 32 0 12 13 14 83 9 45 -4 282 -13 527
-22z m-4034 -191 c19 -87 34 -165 33 -173 -1 -13 -77 312 -79 334 0 5 3 7 6 3
4 -3 22 -77 40 -164z m3819 137 c182 -11 426 -27 543 -35 117 -8 253 -15 302
-15 77 0 90 -2 90 -16 0 -15 -44 -16 -537 -10 -528 7 -539 7 -570 -13 -18 -11
-39 -30 -47 -43 -12 -19 -63 -187 -150 -498 l-16 -55 5 51 c4 43 -1 66 -32
145 -33 84 -37 103 -37 179 0 47 11 141 24 210 l23 125 36 -2 c20 -2 185 -12
366 -23z m-3235 13 c-35 -2 -59 -7 -53 -11 16 -10 -179 -2 -197 9 -9 5 52 8
150 7 91 -1 136 -3 100 -5z m400 -12 c0 -5 -5 -22 -10 -36 l-10 -27 -208 7
c-205 7 -207 7 -227 -15 -11 -12 -25 -34 -32 -48 -7 -16 -12 -21 -12 -11 -1
21 38 77 70 102 14 10 50 22 80 27 78 11 349 12 349 1z m-505 -39 c-21 -22
-23 -22 -245 -20 -219 3 -225 4 -228 24 -3 20 -1 21 246 20 l248 -1 -21 -23z
m-39 -59 c-3 -6 -8 -28 -12 -47 l-6 -36 -193 0 -192 0 -7 31 c-13 68 -27 64
204 64 157 0 209 -3 206 -12z m38 -608 c39 -393 46 -472 45 -495 -2 -50 -19
69 -43 315 -39 387 -48 522 -39 615 7 82 8 79 14 -95 4 -99 14 -252 23 -340z
m-427 273 c-3 -7 -5 -2 -5 12 0 14 2 19 5 13 2 -7 2 -19 0 -25z m1460 -231
c-3 -104 -7 -190 -9 -193 -3 -2 -19 -1 -36 2 -29 6 -33 12 -62 98 -36 108 -36
118 -7 174 l23 43 13 -68 c8 -37 20 -81 27 -98 l14 -30 -5 40 c-3 22 -9 75
-12 118 -5 69 -3 84 18 129 l24 51 8 -39 c5 -22 7 -124 4 -227z m-1168 227
c24 -5 31 -12 31 -30 0 -28 -13 -30 -54 -9 -19 10 -58 15 -121 15 -73 0 -94 3
-99 15 -5 13 11 15 103 15 60 0 123 -3 140 -6z m71 -170 c0 -31 -2 -35 -15
-24 -8 7 -15 23 -15 36 0 15 6 24 15 24 11 0 15 -11 15 -36z m-2 -108 c2 -27
-2 -54 -7 -59 -15 -15 -14 -27 3 -27 13 0 26 -20 26 -41 0 -5 -20 -9 -45 -9
-52 0 -51 -3 -34 115 11 69 14 76 33 73 18 -3 22 -11 24 -52z m2950 14 c23
-10 42 -21 42 -23 0 -2 -37 -4 -82 -4 -75 1 -89 -2 -145 -32 -80 -43 -128 -86
-152 -135 l-18 -38 -11 45 c-15 57 -16 110 -2 102 6 -3 10 -17 10 -31 0 -13 3
-24 7 -24 3 0 30 18 59 40 30 22 70 51 90 65 20 14 31 25 25 25 -17 0 -70 -28
-110 -58 l-34 -25 19 32 c32 55 90 79 189 80 49 0 83 -5 113 -19z m38 -57 c27
-10 8 -44 -33 -57 -78 -25 -153 -127 -153 -210 0 -32 -3 -37 -17 -31 -10 4
-47 14 -83 22 -35 7 -68 17 -72 21 -15 15 24 121 58 161 77 89 207 130 300 94z
m-406 -234 c0 -15 -4 -15 -47 0 -27 9 -49 16 -51 17 -2 1 10 32 44 112 l16 37
19 -75 c10 -41 18 -82 19 -91z m400 155 c0 -14 -32 -120 -40 -136 -5 -10 -7
-24 -4 -33 3 -8 1 -15 -6 -15 -6 0 -8 5 -4 13 5 7 1 7 -12 -3 -29 -22 -30 -24
-11 -17 18 7 21 -1 11 -27 -5 -14 -10 -14 -41 -1 -19 8 -40 12 -46 8 -7 -4 -8
0 -4 11 4 10 7 30 7 45 0 38 50 109 96 138 39 23 54 28 54 17z m-3032 -271
l18 -123 -49 0 -49 0 5 33 c3 17 13 88 23 156 21 141 22 140 52 -66z m1967 94
c-27 -17 -69 -58 -82 -81 -6 -10 -15 -16 -21 -12 -13 8 43 68 83 89 35 19 49
21 20 4z m639 -7 c18 -10 74 -27 126 -37 90 -17 95 -20 143 -68 62 -63 68 -74
54 -107 l-12 -27 -55 65 c-46 55 -63 67 -105 79 -27 7 -90 24 -138 38 -57 15
-84 20 -75 11 7 -7 65 -27 128 -44 63 -17 115 -32 116 -33 1 -1 6 -12 13 -24
6 -12 33 -48 59 -80 32 -39 46 -65 44 -80 -2 -13 -9 -23 -15 -23 -6 0 -41 31
-77 69 -74 78 -111 100 -230 137 -47 14 -98 36 -115 48 -16 12 -39 25 -50 29
-20 6 -20 6 -1 -6 11 -7 36 -27 55 -45 23 -21 59 -40 105 -54 58 -17 83 -32
138 -82 37 -34 68 -64 68 -68 0 -5 -16 -8 -35 -8 -29 0 -33 3 -28 18 6 15 5
15 -10 3 -9 -7 -14 -18 -10 -24 3 -6 -20 5 -53 23 -103 58 -128 69 -169 75
-45 6 -44 6 64 -42 30 -13 52 -25 50 -27 -7 -7 -438 13 -531 23 -48 6 -100 12
-117 13 -32 2 -38 13 -56 91 -6 31 23 105 52 129 12 9 65 14 197 16 238 4 265
5 258 16 -3 5 11 7 31 3 20 -3 39 -1 42 4 11 17 106 10 139 -11z m346 -125 c0
-29 -8 -32 -26 -7 -19 24 -17 32 6 32 15 0 20 -7 20 -25z m-860 -175 c18 -12
2 -12 -25 0 -13 6 -15 9 -5 9 8 0 22 -4 30 -9z m154 -10 c69 -13 159 -21 245
-21 l136 -2 -90 -11 c-88 -11 -89 -12 -45 -19 25 -4 102 -21 171 -37 70 -17
145 -30 167 -30 l40 0 -11 -30 c-10 -26 -16 -30 -49 -30 -27 0 -38 5 -43 19
-4 14 -40 27 -173 60 -92 22 -176 40 -187 40 -17 -1 -256 61 -289 75 -25 10
25 5 128 -14z m-734 -31 c0 -7 -9 -9 -22 -6 -13 4 -40 2 -61 -3 -26 -6 -52 -4
-80 5 -41 13 -39 13 61 14 68 1 102 -3 102 -10z m-187 -15 c130 -39 240 -83
259 -102 10 -10 -53 4 -297 66 -102 27 -142 41 -125 44 51 11 113 8 163 -8z
m1260 -1 c-7 -2 -19 -2 -25 0 -7 3 -2 5 12 5 14 0 19 -2 13 -5z m206 -9 c2 -2
-22 -4 -55 -3 -40 0 -53 3 -39 8 18 8 84 4 94 -5z m54 9 c-7 -2 -19 -2 -25 0
-7 3 -2 5 12 5 14 0 19 -2 13 -5z m-1582 -43 c85 -22 168 -45 186 -51 18 -6
72 -18 120 -29 86 -17 285 -88 291 -102 6 -14 45 -8 57 9 11 15 23 12 134 -33
66 -27 121 -52 121 -56 0 -5 -21 -8 -47 -8 -27 0 -124 -10 -218 -21 -93 -11
-231 -23 -305 -26 l-135 -5 -140 51 c-77 29 -183 69 -235 89 -52 20 -101 36
-107 36 -7 -1 -11 2 -8 6 5 7 -207 106 -280 131 l-40 13 45 8 c48 8 259 24
351 27 38 1 108 -12 210 -39z m1382 33 c-7 -2 -21 -2 -30 0 -10 3 -4 5 12 5
17 0 24 -2 18 -5z m-1856 -100 c79 -31 141 -58 139 -61 -2 -2 -64 16 -138 41
-73 24 -155 48 -183 52 -47 8 -48 9 -20 16 51 12 56 11 202 -48z m1129 -54 c4
-8 0 -9 -15 -4 -13 4 -21 2 -21 -5 0 -6 -5 -8 -10 -5 -6 4 -8 11 -5 16 8 13
42 11 51 -2z"/>
<path d="M4610 3930 c-304 -101 -362 -122 -358 -126 2 -1 143 44 313 101 171
57 303 104 295 104 -8 0 -121 -35 -250 -79z"/>
<path d="M4650 3553 c-63 -25 -115 -46 -116 -47 -1 -1 2 -23 6 -51 4 -27 8
-43 9 -34 0 9 13 21 29 27 15 6 64 25 110 42 l82 31 0 40 c0 21 -1 39 -2 38
-2 -1 -55 -21 -118 -46z m103 -23 c-10 -10 -176 -70 -192 -70 -7 0 -11 9 -9
21 2 17 24 29 103 59 95 35 100 36 103 17 2 -10 0 -23 -5 -27z"/>
<path d="M4400 3462 l-75 -27 -3 -42 -3 -42 62 25 c35 13 69 24 77 24 25 0 7
-33 -23 -42 -64 -20 -116 -40 -111 -45 7 -7 446 137 446 147 0 4 -55 -12 -122
-35 -68 -23 -134 -46 -146 -50 -23 -7 -24 -6 -20 54 1 34 1 61 -2 60 -3 0 -39
-12 -80 -27z m70 -16 c0 -25 -2 -27 -87 -56 l-53 -19 0 28 c0 24 6 29 63 48
80 27 77 27 77 -1z"/>
<path d="M4690 2951 c-21 -6 -26 -14 -28 -49 -3 -37 -6 -42 -28 -42 -19 0 -24
5 -25 28 l-1 27 -7 -30 c-4 -21 -13 -31 -29 -33 -19 -3 -22 1 -22 28 0 32 -1
32 -37 25 -44 -8 -53 -13 -53 -26 0 -6 7 -6 19 1 32 17 61 12 61 -10 0 -13 -9
-22 -27 -26 -45 -9 -53 -13 -53 -23 0 -5 21 -4 50 4 27 7 72 16 100 20 45 6
50 5 50 -12 0 -17 -13 -21 -94 -32 -51 -7 -100 -17 -107 -22 -19 -12 -14 -12
159 15 152 23 215 40 107 29 -52 -5 -57 -4 -53 13 2 14 17 21 55 29 28 5 54
13 58 16 3 4 -14 3 -37 -2 -66 -13 -68 -12 -68 25 0 34 1 35 53 44 42 8 45 10
17 10 -19 0 -46 -3 -60 -7z"/>
<path d="M4348 2903 l-28 -4 0 -130 c0 -127 0 -129 -22 -129 -13 0 -77 -7
-143 -15 -66 -8 -136 -15 -156 -15 l-35 0 -1 -52 c0 -45 0 -47 4 -11 5 49 -2
47 183 63 69 6 135 13 148 16 20 4 22 1 22 -36 0 -40 0 -40 -39 -40 -21 0 -53
-3 -70 -6 l-31 -6 2 -157 2 -156 3 153 c3 144 5 152 23 152 19 0 20 -7 20
-155 l0 -155 -50 0 -50 0 0 160 0 160 -27 -1 c-16 0 -50 -4 -78 -9 -48 -8 -47
-8 23 -7 l72 2 0 -152 c0 -146 -1 -153 -20 -153 -11 0 -20 6 -20 13 0 17 -79
10 -98 -9 -8 -8 -12 -27 -9 -46 l4 -33 1 34 2 34 68 -6 c37 -4 102 -7 145 -7
l77 0 0 -39 c0 -33 -4 -40 -22 -44 -20 -4 -19 -4 5 -6 26 -1 27 -3 27 -51 0
-30 4 -50 11 -50 13 0 7 319 -7 360 -8 21 -10 17 -15 -30 -17 -139 -27 -128
-28 31 -1 167 0 169 48 169 16 0 19 -13 24 -102 4 -57 7 -175 7 -263 1 -87 3
-161 5 -164 3 -2 5 192 5 432 l0 437 28 5 c15 3 41 10 57 14 l30 9 -35 -1
c-19 0 -47 -2 -62 -4z m-58 -664 c0 -37 -1 -39 -16 -24 -10 10 -14 24 -10 40
10 39 26 29 26 -16z"/>
<path d="M4431 2368 c-1 -233 2 -358 9 -358 6 0 10 16 10 35 0 24 5 35 15 35
10 0 15 -11 15 -35 0 -19 3 -35 8 -35 4 0 6 31 4 70 -3 65 -2 70 17 70 19 0
21 -6 21 -64 0 -42 -4 -66 -12 -69 -8 -3 -6 -6 5 -6 16 -1 17 16 17 233 l0
234 31 6 c80 16 79 17 79 -89 l0 -95 -37 0 -38 0 5 -147 c2 -82 6 -130 8 -107
3 38 4 40 32 36 25 -4 29 -9 33 -41 4 -40 9 197 7 351 l-1 97 38 6 c58 10 64
16 11 10 l-48 -5 0 45 c0 45 0 45 34 45 19 0 41 3 50 6 14 5 16 -11 16 -140
l0 -146 -25 0 -25 0 2 -152 c1 -84 3 -136 5 -115 4 33 7 37 33 37 l29 0 0 320
1 321 -32 -6 c-53 -8 -271 -35 -289 -35 -10 0 -19 10 -22 23 -2 12 -5 -139 -6
-335z m339 300 c0 -48 -12 -60 -64 -65 l-46 -6 0 46 c0 49 4 53 78 56 30 1 32
-1 32 -31z m-120 -22 c0 -48 -11 -56 -77 -56 -32 0 -33 2 -33 40 0 42 1 42 70
53 14 3 28 5 33 6 4 0 7 -19 7 -43z m-122 -47 l-3 -71 -37 -4 -38 -3 0 74 0
75 40 0 41 0 -3 -71z m122 -59 c0 -35 -3 -40 -24 -40 -13 0 -38 -3 -55 -6
l-31 -6 0 46 0 46 55 0 55 0 0 -40z m-121 -44 c-2 -2 -21 -6 -41 -9 -28 -4
-38 -2 -38 8 0 15 72 26 79 12 1 -5 1 -10 0 -11z m1 -106 l0 -90 -40 0 -40 0
0 84 0 85 33 4 c17 2 35 5 40 5 4 1 7 -38 7 -88z m230 -150 c0 -53 -2 -60 -20
-60 -18 0 -20 7 -20 60 0 53 2 60 20 60 18 0 20 -7 20 -60z m-230 -15 l0 -65
-40 0 -40 0 0 59 c0 64 -3 61 68 70 8 1 12 -18 12 -64z m120 5 l0 -60 -30 0
-30 0 0 60 0 60 30 0 30 0 0 -60z m110 -100 c0 -33 -3 -40 -20 -40 -17 0 -20
7 -20 40 0 33 3 40 20 40 17 0 20 -7 20 -40z m-120 0 c0 -25 -4 -30 -25 -30
-21 0 -25 5 -25 30 0 25 4 30 25 30 21 0 25 -5 25 -30z m-170 6 c0 -8 3 -21 6
-30 4 -11 1 -16 -10 -16 -11 0 -16 9 -16 30 0 17 5 30 10 30 6 0 10 -6 10 -14z"/>
<path d="M4102 2475 c0 -16 2 -22 5 -12 2 9 2 23 0 30 -3 6 -5 -1 -5 -18z"/>
<path d="M3970 2480 c0 -13 60 -13 80 0 11 7 2 10 -32 10 -27 0 -48 -4 -48
-10z"/>
<path d="M4040 2432 c-53 -4 -80 -11 -80 -22 0 -12 90 -13 109 -1 23 14 8 26
-29 23z"/>
<path d="M4102 2415 c0 -16 2 -22 5 -12 2 9 2 23 0 30 -3 6 -5 -1 -5 -18z"/>
<path d="M4068 2379 c-2 -6 -27 -14 -56 -17 -73 -7 -67 -27 8 -27 59 0 60 1
60 28 0 28 -6 35 -12 16z"/>
<path d="M4103 2310 c0 -41 2 -58 4 -37 2 20 2 54 0 75 -2 20 -4 3 -4 -38z"/>
<path d="M4065 2310 c-3 -5 -28 -10 -56 -10 -32 0 -49 -4 -49 -12 0 -9 17 -12
60 -10 51 3 60 7 60 23 0 21 -6 24 -15 9z"/>
<path d="M4102 2083 l2 -78 3 73 4 72 49 0 50 0 2 -72 2 -73 3 65 c2 35 9 70
15 77 8 10 -4 13 -61 13 l-71 0 2 -77z"/>
<path d="M3976 2069 c5 -71 14 -75 14 -6 0 32 -4 57 -8 57 -5 0 -7 -23 -6 -51z"/>
<path d="M4030 2061 c0 -22 5 -43 10 -46 6 -4 10 10 10 34 0 22 -4 43 -10 46
-6 4 -10 -10 -10 -34z"/>
<path d="M4173 2050 c0 -25 2 -35 4 -22 2 12 2 32 0 45 -2 12 -4 2 -4 -23z"/>
<path d="M3600 3433 c59 -23 123 -42 115 -35 -12 11 -104 42 -119 41 -6 0 -4
-3 4 -6z"/>
<path d="M3571 2868 c1 -17 3 -18 6 -6 3 13 18 18 56 21 l52 3 -57 2 c-54 2
-58 1 -57 -20z"/>
<path d="M3383 2770 c0 -41 2 -58 4 -37 2 20 2 54 0 75 -2 20 -4 3 -4 -38z"/>
<path d="M3418 2793 c12 -2 30 -2 40 0 9 3 -1 5 -23 4 -22 0 -30 -2 -17 -4z"/>
<path d="M3418 2673 c12 -2 30 -2 40 0 9 3 -1 5 -23 4 -22 0 -30 -2 -17 -4z"/>
<path d="M3693 2515 c0 -44 2 -61 4 -37 2 23 2 59 0 80 -2 20 -4 1 -4 -43z"/>
<path d="M3563 2460 c0 -25 2 -35 4 -22 2 12 2 32 0 45 -2 12 -4 2 -4 -23z"/>
<path d="M3668 2403 c7 -3 16 -2 19 1 4 3 -2 6 -13 5 -11 0 -14 -3 -6 -6z"/>
<path d="M2644 3853 c-41 -24 -66 -44 -84 -67 -11 -14 -2 -11 30 9 59 38 105
37 195 -2 104 -44 122 -48 131 -21 9 28 -10 41 -99 68 -103 32 -137 34 -173
13z"/>
<path d="M2821 3446 c-7 -8 -41 -28 -76 -46 -79 -39 -92 -53 -77 -83 6 -13 11
-16 11 -7 1 8 25 -9 59 -42 80 -79 127 -108 173 -108 58 0 88 19 115 72 15 29
31 48 41 48 11 0 13 3 8 9 -10 9 -42 13 -270 30 -138 10 -125 8 -125 21 0 5
29 25 63 44 55 31 111 76 95 76 -3 0 -11 -6 -17 -14z m169 -179 c22 3 40 1 40
-4 0 -39 -106 -45 -197 -11 -87 32 -83 36 22 22 53 -6 114 -10 135 -7z m-32
-50 c36 2 42 0 32 -11 -26 -32 -110 -27 -155 9 -19 14 -16 15 30 8 28 -4 70
-7 93 -6z"/>
<path d="M2855 3436 c-12 -27 7 -50 46 -57 19 -3 45 -11 58 -18 29 -16 46 -2
28 22 -8 12 -28 18 -64 20 -47 2 -52 4 -56 27 -3 22 -4 23 -12 6z"/>
<path d="M3095 3355 c9 -24 9 -32 -1 -65 l-7 -25 28 27 28 26 -28 29 c-21 21
-26 23 -20 8z"/>
<path d="M2645 3642 c6 -6 42 -13 80 -17 44 -4 64 -3 55 3 -22 13 -148 26
-135 14z"/>
<path d="M3093 3680 c-19 -8 -43 -38 -43 -54 0 -3 22 -6 50 -6 36 0 52 5 60
18 11 16 11 16 6 0 -4 -13 0 -18 14 -18 27 0 37 40 14 57 -20 15 -68 16 -101
3z"/>
<path d="M3080 3600 c8 -5 35 -9 60 -9 37 1 41 2 20 9 -38 12 -99 12 -80 0z"/>
<path d="M4850 3140 c20 -13 33 -13 25 0 -3 6 -14 10 -23 10 -15 0 -15 -2 -2
-10z"/>
<path d="M4838 3093 c6 -2 18 -2 25 0 6 3 1 5 -13 5 -14 0 -19 -2 -12 -5z"/>
<path d="M2477 3128 c6 -7 34 -43 62 -80 29 -38 55 -68 57 -68 6 0 -8 19 -70
98 -27 34 -51 62 -54 62 -2 0 0 -6 5 -12z"/>
<path d="M2783 2648 c-5 -13 -7 -34 -3 -48 6 -21 8 -18 12 20 6 53 4 57 -9 28z"/>
<path d="M2520 2615 c0 -5 5 -17 10 -25 5 -8 10 -10 10 -5 0 6 -5 17 -10 25
-5 8 -10 11 -10 5z"/>
<path d="M2540 2565 c0 -5 5 -17 10 -25 5 -8 10 -10 10 -5 0 6 -5 17 -10 25
-5 8 -10 11 -10 5z"/>
<path d="M2771 2554 c0 -11 3 -14 6 -6 3 7 2 16 -1 19 -3 4 -6 -2 -5 -13z"/>
<path d="M2765 2463 c-11 -3 -24 -9 -30 -14 -12 -12 56 0 70 12 10 10 -6 10
-40 2z"/>
<path d="M4221 2984 c0 -11 3 -14 6 -6 3 7 2 16 -1 19 -3 4 -6 -2 -5 -13z"/>
<path d="M1973 2350 c3 -8 35 -87 72 -175 83 -200 149 -326 198 -379 l37 -41
-36 55 c-46 70 -91 160 -164 325 -52 119 -117 251 -107 215z"/>
<path d="M1896 2305 c4 -16 11 -37 15 -45 6 -10 7 -4 3 15 -4 17 -11 37 -15
45 -6 10 -7 4 -3 -15z"/>
<path d="M2430 2292 c-1 -33 166 -352 192 -368 6 -4 -14 40 -45 97 -31 57 -76
145 -101 194 -25 50 -45 84 -46 77z"/>
<path d="M2700 1618 c40 -82 40 -82 40 -202 0 -132 -15 -256 -54 -469 -14 -76
-26 -153 -25 -170 l1 -32 9 35 c30 125 70 378 81 507 15 192 6 262 -47 351
-21 34 -39 62 -41 62 -2 0 15 -37 36 -82z"/>
<path d="M2670 1575 c13 -14 26 -25 28 -25 3 0 -5 11 -18 25 -13 14 -26 25
-28 25 -3 0 5 -11 18 -25z"/>
<path d="M2750 1585 c0 -8 5 -15 11 -15 5 0 7 -4 4 -10 -3 -5 -1 -10 4 -10 6
0 11 11 11 25 0 16 -6 25 -15 25 -8 0 -15 -7 -15 -15z"/>
<path d="M2779 1171 c-24 -24 -29 -48 -13 -61 11 -10 14 -9 14 3 0 8 5 17 11
19 6 2 9 15 7 29 -3 24 -4 25 -19 10z"/>
<path d="M2373 773 c9 -2 25 -2 35 0 9 3 1 5 -18 5 -19 0 -27 -2 -17 -5z"/>
<path d="M3121 2199 c-1 -9 -27 -68 -59 -132 -33 -65 -58 -117 -56 -117 1 0
16 23 34 50 38 59 93 189 86 204 -2 6 -5 4 -5 -5z"/>
<path d="M1642 2022 c43 -47 90 -109 107 -144 23 -45 31 -55 31 -37 0 47 -90
166 -174 232 -29 22 -19 8 36 -51z"/>
<path d="M1460 1205 c-14 -8 -20 -14 -14 -15 5 0 19 7 30 15 24 18 16 19 -16
0z"/>
<path d="M1370 1175 c-25 -7 -88 -23 -140 -35 -52 -12 -106 -29 -120 -37 -16
-9 -18 -12 -5 -8 11 4 83 23 160 42 77 19 147 39 155 44 20 11 4 10 -50 -6z"/>
<path d="M1245 1091 c28 -5 97 -27 155 -49 99 -38 126 -44 104 -22 -18 18
-198 72 -253 75 l-56 4 50 -8z"/>
<path d="M1135 882 c-34 -21 -97 -88 -116 -123 -7 -13 13 4 45 38 31 34 75 71
99 82 27 14 35 21 22 21 -11 0 -33 -8 -50 -18z"/>
<path d="M4858 2243 c7 -3 16 -2 19 1 4 3 -2 6 -13 5 -11 0 -14 -3 -6 -6z"/>
<path d="M3388 1043 c6 -2 18 -2 25 0 6 3 1 5 -13 5 -14 0 -19 -2 -12 -5z"/>
<path d="M1798 190 c-161 -17 -220 -28 -168 -29 30 -1 421 38 435 44 24 9
-113 1 -267 -15z"/>
<path d="M1904 5106 c-18 -14 -19 -32 -19 -636 0 -342 2 -625 5 -628 3 -4 14
-7 25 -7 19 0 20 -8 23 -244 2 -213 4 -242 17 -231 12 10 15 54 17 244 l3 231
2 -222 c2 -137 7 -223 13 -223 6 0 11 1 12 3 0 1 4 109 7 239 4 169 10 241 19
250 19 19 14 30 -7 18 -11 -5 -26 -10 -33 -10 -7 1 3 9 22 19 29 16 38 29 51
75 l17 57 -34 -7 -34 -6 0 495 0 495 76 48 c41 27 71 50 64 52 -6 2 -18 -2
-27 -10 -12 -9 -15 -9 -9 0 15 25 -40 12 -98 -23 -32 -19 -60 -35 -62 -35 -8
0 -4 30 4 30 4 0 18 9 32 20 l25 20 -46 0 c-25 0 -54 -6 -65 -14z m35 -1104
c-9 -15 -10 -15 -5 1 3 10 7 238 8 505 l3 487 2 -488 c2 -339 0 -494 -8 -505z"/>
<path d="M3474 5104 c-18 -14 -18 -15 4 -4 12 6 22 13 22 15 0 8 -5 6 -26 -11z"/>
<path d="M3424 5074 c-18 -14 -18 -15 4 -4 12 6 22 13 22 15 0 8 -5 6 -26 -11z"/>
<path d="M3441 4985 c-74 -46 -139 -89 -145 -96 -6 -6 16 5 49 26 33 21 99 63
148 93 74 46 96 62 85 62 -2 0 -63 -38 -137 -85z"/>
<path d="M3374 5044 c-18 -14 -18 -15 4 -4 12 6 22 13 22 15 0 8 -5 6 -26 -11z"/>
<path d="M2080 4560 c0 -271 2 -491 5 -489 7 7 8 969 1 976 -3 4 -6 -216 -6
-487z"/>
<path d="M4795 5020 c-13 -6 -15 -9 -5 -9 8 0 22 4 30 9 18 12 2 12 -25 0z"/>
<path d="M3424 4924 c-93 -53 -176 -103 -184 -111 -13 -14 -12 -14 10 -1 14 8
98 57 188 108 141 81 172 100 159 100 -2 0 -79 -43 -173 -96z"/>
<path d="M4600 4970 c-8 -5 -10 -10 -5 -10 6 0 17 5 25 10 8 5 11 10 5 10 -5
0 -17 -5 -25 -10z"/>
<path d="M4535 4945 c-16 -8 -122 -53 -235 -101 -174 -73 -331 -146 -280 -130
23 7 532 226 550 236 24 15 -2 10 -35 -5z"/>
<path d="M1465 3620 c0 -492 1 -694 2 -447 2 246 2 648 0 895 -1 246 -2 44 -2
-448z"/>
<path d="M974 3990 c0 -102 2 -143 3 -92 2 50 2 134 0 185 -1 50 -3 9 -3 -93z"/>
<path d="M1034 3855 c0 -60 1 -84 3 -52 2 32 2 81 0 110 -2 29 -3 3 -3 -58z"/>
<path d="M982 3775 c0 -16 2 -22 5 -12 2 9 2 23 0 30 -3 6 -5 -1 -5 -18z"/>
<path d="M40 2631 c25 -5 126 -12 225 -15 99 -4 195 -9 213 -12 l32 -5 0 -194
0 -195 -78 0 c-44 0 -154 3 -245 7 l-167 6 -1 66 c0 36 -4 86 -8 111 l-8 45
-2 -56 c0 -31 2 -83 5 -117 l7 -61 51 -5 c28 -4 144 -7 259 -9 l207 -2 0 211
0 211 -152 7 c-328 14 -384 15 -338 7z"/>
<path d="M432 2468 l-2 -76 -36 10 c-20 5 -46 7 -57 4 -14 -3 -34 10 -76 55
-31 32 -64 59 -74 59 -10 0 -35 -18 -57 -40 -22 -22 -46 -40 -55 -40 -24 0
-18 -39 7 -49 20 -8 21 -10 6 -16 -21 -8 -24 -35 -5 -35 7 0 23 7 35 16 15 10
32 13 51 9 17 -3 32 -2 36 4 8 14 53 14 96 0 48 -16 60 -30 15 -18 -21 6 -40
8 -43 6 -5 -6 69 -32 81 -28 5 1 24 3 43 5 18 1 37 7 42 12 4 5 5 52 1 104
l-7 95 -1 -77z"/>
<path d="M359 2303 l-24 -28 28 24 c25 23 32 31 24 31 -2 0 -14 -12 -28 -27z"/>
<path d="M3866 1621 c-5 -8 61 -11 241 -11 136 0 421 -3 633 -6 245 -3 380 -2
370 4 -23 15 -1236 27 -1244 13z"/>
<path d="M236 416 c-108 -25 -155 -41 -172 -57 -29 -27 -30 -40 -4 -64 25 -22
19 -31 -25 -39 -19 -4 -35 -10 -35 -14 0 -16 97 -54 189 -74 65 -14 149 -22
261 -25 151 -5 176 -3 295 22 148 31 182 45 191 81 9 35 -23 67 -111 109 -106
52 -235 86 -345 91 -82 3 -116 -1 -244 -30z m380 -11 c97 -25 287 -110 288
-130 1 -12 -175 -52 -264 -61 l-65 -6 -65 53 c-75 60 -164 105 -227 115 -24 3
-43 10 -43 14 0 13 132 38 206 39 47 1 106 -8 170 -24z m-281 -67 c60 -19 122
-55 180 -103 17 -14 25 -25 18 -25 -7 0 -83 18 -171 39 -87 22 -179 42 -205
46 -57 9 -87 28 -70 45 32 33 144 32 248 -2z m550 -113 c-53 -23 -269 -56
-296 -46 -20 8 -17 10 26 11 28 1 100 12 160 25 127 26 152 29 110 10z"/>
<path d="M360 391 c-11 -8 8 -11 70 -10 47 0 107 -5 133 -11 54 -14 75 -7 31
11 -39 16 -215 23 -234 10z"/>
<path d="M42 423 c27 -2 69 -2 95 0 27 2 5 3 -47 3 -52 0 -74 -1 -48 -3z"/>
<path d="M0 177 c0 -7 12 -20 28 -29 15 -9 67 -46 115 -82 89 -66 127 -85 91
-45 -21 23 -218 169 -228 169 -3 0 -6 -6 -6 -13z"/>
<path d="M4975 174 c-223 -36 -428 -75 -458 -88 l-32 -14 45 -1 c48 -1 476 34
548 45 40 6 42 8 42 40 0 40 -2 40 -145 18z"/>
</g>
</svg>